<svg width="512" height="512" viewBox="0 0 512 512" fill="none" xmlns="http://www.w3.org/2000/svg">
<g clip-path="url(#clip0)">
<path d="M85.3333 256C108.897 256 128 236.897 128 213.333C128 189.769 108.897 170.667 85.3333 170.667C61.7692 170.667 42.6667 189.769 42.6667 213.333C42.6667 236.897 61.7692 256 85.3333 256Z" fill="#FFF38A"/>
<path d="M142.293 285.867C120.747 302.08 106.667 328.107 106.667 357.333V362.667H16C7.25333 362.667 0 355.413 0 346.667V336C0 303.573 26.24 277.333 58.6667 277.333H112C123.093 277.333 133.547 280.533 142.293 285.867Z" fill="#FFF38A"/>
<path d="M426.667 256C450.231 256 469.333 236.897 469.333 213.333C469.333 189.769 450.231 170.667 426.667 170.667C403.103 170.667 384 189.769 384 213.333C384 236.897 403.103 256 426.667 256Z" fill="#FFF38A"/>
<path d="M512 336V346.667C512 355.413 504.747 362.667 496 362.667H405.333V357.333C405.333 328.107 391.253 302.08 369.707 285.867C378.453 280.533 388.907 277.333 400 277.333H453.333C485.76 277.333 512 303.573 512 336Z" fill="#FFF38A"/>
<path d="M256 266.667C291.346 266.667 320 238.013 320 202.667C320 167.32 291.346 138.667 256 138.667C220.654 138.667 192 167.32 192 202.667C192 238.013 220.654 266.667 256 266.667Z" fill="#FFF38A"/>
<path d="M314.667 298.667H197.333C164.971 298.667 138.667 324.971 138.667 357.333V389.333C138.667 398.165 145.835 405.333 154.667 405.333H357.333C366.165 405.333 373.333 398.165 373.333 389.333V357.333C373.333 324.971 347.029 298.667 314.667 298.667Z" fill="#FFF38A"/>
</g>
<defs>
<clipPath id="clip0">
<rect width="512" height="512" fill="white"/>
</clipPath>
</defs>
</svg>
