<svg width="250" height="250" viewBox="0 0 250 250" fill="none" xmlns="http://www.w3.org/2000/svg">
<path d="M125 2.44995C192.65 2.44995 247.5 57.2999 247.5 124.95C247.5 142.475 244.55 159.125 237.925 174.2C237.775 174.5 238.2 174.775 238.2 175.075V175.25C234.8 182.175 231.4 188.775 224.6 194.95V231.15H186.6C179.325 234.55 171.575 238.725 163.475 241.425C151.375 245.425 138.45 247.525 125 247.525C74.225 247.525 30.675 216.6 12.075 172.6C5.89999 157.95 2.47501 141.85 2.47501 124.975C2.5 57.325 57.35 2.44995 125 2.44995ZM199.275 166.35V164.55C199.275 143.15 182.5 125.075 161.1 124.3C172.975 123.275 182.5 113.2 182.5 101.075C182.5 88.1749 172.175 77.85 159.275 77.85C156.175 77.85 153.35 78.625 150.5 79.65C152.575 83.775 153.85 88.4249 153.85 93.325C153.85 102.875 149.475 111.375 142.5 117.05C146.125 120.925 151.525 123.5 157.2 124.025C153.85 124.025 150.75 124.525 147.65 125.575C162.1 133.825 172.15 149.05 173.95 166.325L199.275 166.35ZM73.65 171.5H171.675V170.2C171.675 143.9 151.05 122.475 125.25 121.175C139.7 119.875 151.3 107.775 151.3 92.8C151.3 77.05 138.65 64.425 122.925 64.425C107.2 64.425 94.55 77.075 94.55 92.8C94.55 107.75 105.9 119.875 120.35 121.175C94.3 122.475 73.65 143.875 73.65 170.2V171.5ZM49.65 166.1H71.575C73.375 148.55 83.95 133.075 98.925 124.825C96.6 124.3 94.025 123.8 91.7 123.8C96.85 123.275 101.5 121.225 105.1 118.125C97.1 112.45 91.95 103.175 91.95 92.85C91.95 87.4249 93.25 82.525 95.575 78.15C93.775 77.625 91.7 77.375 89.65 77.375C76.75 77.375 66.425 87.7 66.425 100.6C66.425 112.725 75.7 122.775 87.575 123.825C66.425 124.85 49.4 143.175 49.4 164.575C49.4 165.075 49.4 166.35 49.65 166.1Z" fill="#3D4DA1"/>
</svg>
