<svg width="120" height="120" viewBox="0 0 120 120" fill="none" xmlns="http://www.w3.org/2000/svg">
<g clip-path="url(#clip0)">
<path d="M23.7893 90.1887L5.95359 76.16C4.9793 75.4271 4.66031 74.1334 5.24508 73.2866C8.10374 69.1466 13.6106 67.7326 19.0214 69.7494L35.152 78.8996L23.7893 90.1887Z" fill="#3D4DA1"/>
<path d="M29.7747 96.1742L43.8402 114.047C44.5731 115.021 45.8669 115.34 46.7137 114.755L47.777 114.021C51.2788 111.603 52.4746 106.945 50.7688 102.368L41.1006 84.8481L29.7747 96.1742Z" fill="#3D4DA1"/>
<path d="M24.8299 73.0439L14.7386 83.0698L23.7893 90.1887L35.1522 78.8993L24.8299 73.0439Z" fill="#A6A6ED"/>
<path d="M28.6213 35.2452C26.3814 33.0053 26.2042 29.4363 28.2053 26.9807C31.0675 23.4684 34.6534 19.5574 36.8045 17.4063C39.7473 14.4635 40.0045 14.815 43.1486 12.8878C43.6115 12.6039 44.2089 12.6724 44.5928 13.0563L50.8105 19.274C51.1944 19.6579 51.2626 20.2553 50.979 20.7182C49.0518 23.8624 49.4033 24.1192 46.4605 27.062C44.3094 29.2131 40.3984 32.7991 36.8861 35.6612C34.4303 37.6621 30.861 37.4852 28.6213 35.2452Z" fill="#C3D3DB"/>
<path d="M84.755 91.3789C82.5151 89.139 82.3379 85.5699 84.339 83.1144C87.2011 79.602 90.7871 75.691 92.9382 73.5399C95.881 70.5971 96.1379 70.9487 99.2822 69.0214C99.7451 68.7376 100.343 68.806 100.726 69.1899L106.944 75.4076C107.328 75.7916 107.396 76.389 107.113 76.8519C105.185 79.996 105.537 80.2529 102.594 83.1959C100.443 85.347 96.5321 88.9329 93.0197 91.7951C90.564 93.796 86.9949 93.6188 84.755 91.3789Z" fill="#C3D3DB"/>
<path d="M56.7006 56.4473L78.7053 34.4425L10.5394 13.0254C9.13568 12.667 7.74022 13.0083 6.81163 13.9369L1.05257 19.6959C-0.876095 21.6246 -0.0482834 25.1601 2.67445 26.6222L56.7006 56.4473Z" fill="#3D4DA1"/>
<path d="M63.3032 29.6034L43.6588 49.2477L56.7006 56.4473L78.7053 34.4425L63.3032 29.6034Z" fill="#A6A6ED"/>
<path d="M63.553 63.2996L85.5577 41.2949L106.975 109.461C107.333 110.865 106.992 112.26 106.063 113.189L100.304 118.948C98.3757 120.876 94.8401 120.048 93.3781 117.326L63.553 63.2996Z" fill="#3D4DA1"/>
<path d="M105.087 32.0444L68.1193 69.0116C61.9164 75.2146 55.3218 81.0003 48.4176 86.2967L30.8292 99.7892C26.7574 102.913 21.9147 103.291 19.312 100.688C16.7093 98.0853 17.0871 93.2427 20.2108 89.1709L33.7033 71.5825C38.9997 64.6783 44.7852 58.0839 50.9884 51.8807L87.9558 14.9135C93.0094 9.85993 98.8135 5.64939 104.945 2.75861C110.225 0.26932 115.838 -1.29021 118.564 1.43604C121.29 4.16228 119.731 9.77485 117.241 15.0551C114.351 21.187 110.14 26.9908 105.087 32.0444Z" fill="#E0F3FC"/>
<path d="M118.564 1.43625C117.604 0.476718 116.286 0.0496874 114.752 0.00585938C114.862 2.84507 113.631 6.446 112.001 9.90443C109.11 16.0359 104.899 21.84 99.8457 26.8935L62.8785 63.8607C56.6755 70.0637 50.0809 75.8495 43.1767 81.1456L25.5883 94.6381C22.9985 96.6249 20.0974 97.4989 17.6585 97.2036C17.8418 98.5571 18.3881 99.7639 19.312 100.688C21.9147 103.291 26.7574 102.913 30.8292 99.7889L48.4176 86.2965C55.3218 81.0001 61.9161 75.2145 68.1193 69.0114L105.087 32.0444C110.14 26.9908 114.351 21.1868 117.242 15.0553C119.731 9.77506 121.29 4.16249 118.564 1.43625Z" fill="#C3D3DB"/>
<path d="M108.15 24.9649L106.887 26.2273C105.715 27.3996 92.6009 14.2854 93.7732 13.1131L95.0356 11.8507C95.8313 11.055 96.9992 10.8043 97.9503 11.225C102.689 13.3212 106.679 17.3117 108.776 22.0505C109.196 23.0013 108.945 24.1692 108.15 24.9649Z" fill="#51C4F5"/>
<path d="M23.3062 98.4519C22.8564 98.4519 22.4064 98.2803 22.0633 97.937C21.3768 97.2505 21.3768 96.1374 22.0633 95.4512L37.4139 80.1006C38.1004 79.4141 39.2134 79.4141 39.8997 80.1006C40.5862 80.7871 40.5862 81.9001 39.8997 82.5864L24.5491 97.937C24.206 98.2801 23.7562 98.4519 23.3062 98.4519Z" fill="#A6A6ED"/>
</g>
<defs>
<clipPath id="clip0">
<rect width="120" height="120" fill="white"/>
</clipPath>
</defs>
</svg>
