<svg width="512" height="512" viewBox="0 0 512 512" fill="none" xmlns="http://www.w3.org/2000/svg">
<path d="M256 0C114.837 0 0 114.837 0 256C0 397.163 114.837 512 256 512C397.163 512 512 397.163 512 256C512 114.837 397.163 0 256 0ZM362.667 362.667H149.333C137.536 362.667 128 353.11 128 341.334C128 329.558 137.536 320.001 149.333 320.001H362.666C374.463 320.001 383.999 329.558 383.999 341.334C384 353.109 374.464 362.667 362.667 362.667ZM362.667 277.333H149.333C137.536 277.333 128 267.776 128 256C128 244.224 137.536 234.667 149.333 234.667H362.666C374.463 234.667 383.999 244.224 383.999 256C383.999 267.776 374.464 277.333 362.667 277.333ZM362.667 192H149.333C137.536 192 128 182.443 128 170.667C128 158.891 137.536 149.334 149.333 149.334H362.666C374.463 149.334 383.999 158.891 383.999 170.667C383.999 182.443 374.464 192 362.667 192Z" fill="#3D4DA1"/>
</svg>
