<svg width="100" height="100" viewBox="0 0 100 100" fill="none" xmlns="http://www.w3.org/2000/svg">
<path d="M18.75 28.125V31.25C18.75 34.5594 20.4766 37.4656 23.0734 39.1344C22.3078 40.0609 21.1844 40.625 19.9437 40.625H19.7156C15.7375 40.625 12.5 43.8609 12.5 47.8406V56.25C12.5 57.1141 13.2 57.8125 14.0625 57.8125H42.1875C43.05 57.8125 43.75 57.1141 43.75 56.25V51.5625H56.25V56.25C56.25 57.1141 56.95 57.8125 57.8125 57.8125H85.9375C86.8 57.8125 87.5 57.1141 87.5 56.25V47.8406C87.5 43.8609 84.2625 40.625 80.2844 40.625H80.0563C78.8156 40.625 77.6937 40.0609 76.9281 39.1344C79.5234 37.4656 81.25 34.5594 81.25 31.25V28.125C81.25 22.9547 77.0453 18.75 71.875 18.75C66.7047 18.75 62.5 22.9547 62.5 28.125V31.25C62.5 34.5594 64.2266 37.4656 66.8234 39.1344C66.3547 39.7016 65.75 40.1188 65.0625 40.3625C63.9688 37.7656 61.3984 35.9375 58.4094 35.9375H58.1813C56.9406 35.9375 55.8188 35.3734 55.0531 34.4469C57.6484 32.7781 59.375 29.8719 59.375 26.5625V23.4375C59.375 18.2672 55.1703 14.0625 50 14.0625C44.8297 14.0625 40.625 18.2672 40.625 23.4375V26.5625C40.625 29.8719 42.3516 32.7781 44.9484 34.4469C44.1828 35.3734 43.0594 35.9375 41.8188 35.9375H41.5906C38.6 35.9375 36.0312 37.7656 34.9375 40.3641C34.25 40.1203 33.6453 39.7031 33.1766 39.1359C35.7734 37.4656 37.5 34.5594 37.5 31.25V28.125C37.5 22.9547 33.2953 18.75 28.125 18.75C22.9547 18.75 18.75 22.9547 18.75 28.125ZM40.625 54.6875H15.625V47.8406C15.625 45.5859 17.4594 43.75 19.7156 43.75H19.9437C20.3453 43.75 20.7375 43.7078 21.1234 43.6453L21.6859 44.2078C23.4047 45.9281 25.6922 46.875 28.125 46.875C30.4719 46.875 32.6781 45.9859 34.375 44.3797V50C34.375 50.8641 35.075 51.5625 35.9375 51.5625H40.625V54.6875ZM80.2844 43.75C82.5406 43.75 84.375 45.5859 84.375 47.8406V54.6875H59.375V51.5625H64.0625C64.925 51.5625 65.625 50.8641 65.625 50V44.3797C67.3219 45.9859 69.5281 46.875 71.875 46.875C74.3078 46.875 76.5953 45.9281 78.3141 44.2078L78.8766 43.6453C79.2625 43.7078 79.6547 43.75 80.0563 43.75H80.2844ZM65.625 28.125C65.625 24.6781 68.4281 21.875 71.875 21.875C75.3219 21.875 78.125 24.6781 78.125 28.125V31.25C78.125 34.6969 75.3219 37.5 71.875 37.5C68.4281 37.5 65.625 34.6969 65.625 31.25V28.125ZM71.875 40.625C72.5953 40.625 73.2938 40.5359 73.9688 40.3813C74.4437 41.1359 75.0406 41.7797 75.7312 42.3C73.5547 44.1234 70.1938 44.1234 68.0188 42.3C68.7094 41.7797 69.3078 41.1359 69.7812 40.3813C70.4562 40.5359 71.1547 40.625 71.875 40.625ZM43.75 23.4375C43.75 19.9906 46.5531 17.1875 50 17.1875C53.4469 17.1875 56.25 19.9906 56.25 23.4375V26.5625C56.25 30.0094 53.4469 32.8125 50 32.8125C46.5531 32.8125 43.75 30.0094 43.75 26.5625V23.4375ZM50 35.9375C50.7203 35.9375 51.4188 35.8484 52.0938 35.6938C52.5687 36.4484 53.1656 37.0922 53.8562 37.6125C51.6797 39.4359 48.3187 39.4359 46.1437 37.6125C46.8344 37.0922 47.4328 36.4484 47.9062 35.6938C48.5812 35.8484 49.2797 35.9375 50 35.9375ZM37.5 43.1531C37.5 40.8984 39.3344 39.0625 41.5906 39.0625H41.8188C42.2203 39.0625 42.6125 39.0203 42.9984 38.9578L43.5609 39.5203C45.2797 41.2406 47.5672 42.1875 50 42.1875C52.4328 42.1875 54.7203 41.2406 56.4391 39.5203L57.0016 38.9578C57.3875 39.0203 57.7797 39.0625 58.1813 39.0625H58.4094C60.6656 39.0625 62.5 40.8984 62.5 43.1531V48.4375H37.5V43.1531ZM31.9813 42.2984C29.8047 44.1219 26.4437 44.1219 24.2687 42.2984C24.9594 41.7781 25.5578 41.1344 26.0312 40.3797C26.7063 40.5359 27.4047 40.625 28.125 40.625C28.8453 40.625 29.5438 40.5359 30.2188 40.3813C30.6922 41.1359 31.2906 41.7797 31.9813 42.2984ZM34.375 28.125V31.25C34.375 34.6969 31.5719 37.5 28.125 37.5C24.6781 37.5 21.875 34.6969 21.875 31.25V28.125C21.875 24.6781 24.6781 21.875 28.125 21.875C31.5719 21.875 34.375 24.6781 34.375 28.125Z" fill="#3D4DA1"/>
<path d="M88.5844 67.6859L56.5703 76.4172C56.3484 76.0781 56.0906 75.7547 55.7922 75.4562L44.8547 64.5187C44.5625 64.2266 44.1641 64.0625 43.75 64.0625H26.5625V62.5C26.5625 61.6359 25.8625 60.9375 25 60.9375H15.625H3.125C2.2625 60.9375 1.5625 61.6359 1.5625 62.5V96.875C1.5625 97.7391 2.2625 98.4375 3.125 98.4375H15.625C16.4875 98.4375 17.1875 97.7391 17.1875 96.875V95.3125H25C25.8625 95.3125 26.5625 94.6141 26.5625 93.75V92.1875H37.2469L46.3812 95.2313C46.5422 95.2844 46.7078 95.3125 46.875 95.3125C47.0469 95.3125 47.2188 95.2828 47.3828 95.2266L97.3828 78.0391C98.0141 77.8234 98.4375 77.2297 98.4375 76.5625V75C98.4375 73.5125 98.0172 72.0641 97.2203 70.8094C95.4719 68.0625 91.9187 66.7781 88.5844 67.6859ZM14.0625 95.3125H4.6875V64.0625H14.0625V95.3125ZM23.4375 92.1875H17.1875V64.0625H23.4375V92.1875ZM95.3125 75.4469L46.8672 92.1L37.9938 89.1422C37.8344 89.0906 37.6672 89.0625 37.5 89.0625H26.5625V67.1875H43.1031L53.5828 77.6672C54.6969 78.7813 54.6969 80.5937 53.5828 81.7078C52.4688 82.8219 50.6562 82.8219 49.5422 81.7078L41.7297 73.8953L39.5203 76.1047L47.3328 83.9172C48.4984 85.0828 50.0312 85.6656 51.5625 85.6656C53.0938 85.6656 54.6266 85.0828 55.7922 83.9172C57.0312 82.6781 57.5922 81.0266 57.5141 79.4L89.4062 70.7016C91.4344 70.1469 93.5641 70.8812 94.5828 72.4875C95.0609 73.2375 95.3125 74.1078 95.3125 75V75.4469Z" fill="#3D4DA1"/>
<path d="M64.3156 3.7126C63.3031 3.40166 62.2781 3.12041 61.2391 2.87354L60.5141 5.9126C61.4875 6.14385 62.4469 6.40635 63.3938 6.7001L64.3156 3.7126Z" fill="#3D4DA1"/>
<path d="M95.3125 50C95.3125 50.7031 95.2969 51.4047 95.2641 52.1L98.3859 52.2437C98.4203 51.5 98.4375 50.7516 98.4375 50C98.4375 49.6844 98.4344 49.3687 98.4281 49.0547L95.3031 49.1156C95.3094 49.4109 95.3125 49.7062 95.3125 50Z" fill="#3D4DA1"/>
<path d="M58.1141 2.23906C57.0844 2.06563 56.0219 1.92188 54.9531 1.8125L54.6359 4.92188C55.6312 5.02188 56.6172 5.15469 57.5922 5.32187L58.1141 2.23906Z" fill="#3D4DA1"/>
<path d="M94.2593 40.2376L97.3109 39.5657C97.0828 38.5282 96.8187 37.4892 96.525 36.4751L93.5234 37.3454C93.7984 38.2985 94.0437 39.2626 94.2593 40.2376Z" fill="#3D4DA1"/>
<path d="M70.2797 5.99844C69.3109 5.55156 68.3203 5.13438 67.3359 4.75781L66.2188 7.675C67.1516 8.03281 68.0687 8.42031 68.9703 8.83594L70.2797 5.99844Z" fill="#3D4DA1"/>
<path d="M95.15 46.1344L98.2641 45.8688C98.1735 44.8031 98.0485 43.7484 97.8906 42.7031L94.8 43.1703C94.95 44.1484 95.0656 45.1375 95.15 46.1344Z" fill="#3D4DA1"/>
<path d="M87.0937 23.9717L89.65 22.1748C89.039 21.3045 88.3984 20.4545 87.7328 19.6279L85.2968 21.5873C85.9218 22.3623 86.5218 23.1561 87.0937 23.9717Z" fill="#3D4DA1"/>
<path d="M92.5969 34.5108L95.5344 33.4421C95.1703 32.4421 94.7703 31.4483 94.3469 30.4858L91.4875 31.7468C91.8859 32.653 92.2562 33.5749 92.5969 34.5108Z" fill="#3D4DA1"/>
<path d="M85.6516 17.211C84.9406 16.4376 84.1875 15.672 83.4156 14.936L81.2594 17.197C81.9781 17.8829 82.6766 18.5923 83.35 19.3251L85.6516 17.211Z" fill="#3D4DA1"/>
<path d="M75.8844 9.05161C74.9938 8.48755 74.0672 7.94224 73.1313 7.43286L71.6391 10.1797C72.5141 10.6563 73.3719 11.1594 74.211 11.6922L75.8844 9.05161Z" fill="#3D4DA1"/>
<path d="M93.1672 63.8203L96.1437 64.7718C96.4687 63.7562 96.7609 62.7218 97.0141 61.7L93.9812 60.95C93.7406 61.9203 93.4687 62.8765 93.1672 63.8203Z" fill="#3D4DA1"/>
<path d="M98.1375 55.4234L95.0312 55.0781C94.9203 56.0719 94.7765 57.0563 94.6031 58.0297L97.6796 58.5828C97.8656 57.5422 98.0187 56.4797 98.1375 55.4234Z" fill="#3D4DA1"/>
<path d="M81.0375 12.811C80.2219 12.1313 79.375 11.4688 78.5234 10.8469L76.6812 13.3704C77.4859 13.9579 78.2703 14.5719 79.0328 15.2094L81.0375 12.811Z" fill="#3D4DA1"/>
<path d="M90.1937 29.0623L92.964 27.6155C92.475 26.6795 91.9484 25.7467 91.3968 24.842L88.7281 26.4655C89.2453 27.3123 89.7343 28.1795 90.1937 29.0623Z" fill="#3D4DA1"/>
<path d="M6.57187 37.0236L3.57656 36.1299C3.27343 37.1502 2.99999 38.1877 2.76718 39.2174L5.81406 39.9096C6.03593 38.9346 6.28906 37.9736 6.57187 37.0236Z" fill="#3D4DA1"/>
<path d="M8.65313 31.4343L5.80469 30.1531C5.37188 31.1125 4.96407 32.1078 4.59219 33.1078L7.52032 34.1968C7.8672 33.2609 8.24532 32.339 8.65313 31.4343Z" fill="#3D4DA1"/>
<path d="M11.4578 26.1626L8.80313 24.5142C8.24531 25.4142 7.70938 26.3454 7.21094 27.2813L9.96875 28.7501C10.4375 27.8704 10.9328 27.0079 11.4578 26.1626Z" fill="#3D4DA1"/>
<path d="M14.9281 21.3062L12.5094 19.3281C11.8359 20.15 11.1891 20.9937 10.5703 21.8594L13.1109 23.6781C13.6922 22.8688 14.2984 22.0766 14.9281 21.3062Z" fill="#3D4DA1"/>
<path d="M4.72188 51.7656C4.69844 51.1797 4.6875 50.5891 4.6875 50C4.6875 49.5906 4.69219 49.1859 4.70312 48.7812L1.57969 48.6953C1.56719 49.1266 1.5625 49.5641 1.5625 50.0016C1.5625 50.6312 1.575 51.2594 1.59844 51.8844L4.72188 51.7656Z" fill="#3D4DA1"/>
<path d="M5.24999 42.8391L2.16249 42.3516C1.99687 43.3984 1.86406 44.4625 1.76718 45.5141L4.87812 45.8016C4.97031 44.8031 5.09531 43.8156 5.24999 42.8391Z" fill="#3D4DA1"/>
<path d="M1.82343 55.0672C1.93436 56.1328 2.07968 57.1844 2.2578 58.2266L5.33905 57.6984C5.17186 56.7234 5.03593 55.7375 4.9328 54.7422L1.82343 55.0672Z" fill="#3D4DA1"/>
<path d="M23.6109 13.1578L21.7859 10.6218C20.9234 11.2421 20.0797 11.8906 19.2594 12.564L21.2453 14.9781C22.0125 14.3468 22.8031 13.739 23.6109 13.1578Z" fill="#3D4DA1"/>
<path d="M34.0969 7.55791L33 4.63135C32.0047 5.00479 31.0141 5.41416 30.0562 5.84697L31.3437 8.69385C32.2469 8.28604 33.1656 7.90791 34.0969 7.55791Z" fill="#3D4DA1"/>
<path d="M39.8047 5.83755L39.1078 2.79224C38.0766 3.02817 37.0375 3.30317 36.0219 3.60942L36.925 6.60005C37.8719 6.31567 38.8406 6.05942 39.8047 5.83755Z" fill="#3D4DA1"/>
<path d="M45.6922 4.89058L45.4016 1.77808C44.3547 1.87495 43.2891 2.01089 42.236 2.18276L42.7344 5.2687C43.711 5.11089 44.6969 4.9812 45.6922 4.89058Z" fill="#3D4DA1"/>
<path d="M28.6703 10.0109L27.1984 7.25464C26.2609 7.75464 25.3328 8.29058 24.4375 8.84995L26.0922 11.5015C26.9312 10.9765 27.7922 10.4796 28.6703 10.0109Z" fill="#3D4DA1"/>
<path d="M49.8657 4.68749C50.4594 4.68437 51.0657 4.69687 51.661 4.71718L51.7688 1.5953C51.1828 1.57343 50.5922 1.56249 50.0047 1.56249C49.5266 1.56093 49.0532 1.56718 48.5797 1.58124L48.675 4.70624C49.0688 4.69374 49.4641 4.68749 49.8657 4.68749Z" fill="#3D4DA1"/>
<path d="M19.0016 16.953L16.8672 14.6702C16.1031 15.3842 15.3453 16.1436 14.6125 16.928L16.8969 19.0608C17.5797 18.3264 18.2891 17.617 19.0016 16.953Z" fill="#3D4DA1"/>
</svg>
