<?xml version="1.0" standalone="no"?>
<!DOCTYPE svg PUBLIC "-//W3C//DTD SVG 20010904//EN"
 "http://www.w3.org/TR/2001/REC-SVG-20010904/DTD/svg10.dtd">
<svg version="1.0" xmlns="http://www.w3.org/2000/svg"
 width="130.000000pt" height="130.000000pt" viewBox="0 0 130.000000 130.000000"
 preserveAspectRatio="xMidYMid meet">
<metadata>
Created by potrace 1.14, written by Peter Selinger 2001-2017
</metadata>
<g transform="translate(0.000000,130.000000) scale(0.100000,-0.100000)"
fill="#000000" stroke="none">
<path d="M619 1257 c-93 -63 -298 -204 -374 -257 l-80 -56 0 -301 -1 -302 36
-24 c19 -13 131 -89 248 -170 l214 -147 61 42 c34 24 67 48 74 53 6 6 88 64
182 130 l171 119 0 302 0 301 -22 12 c-13 6 -41 25 -63 41 -22 17 -78 57 -125
90 -47 32 -128 90 -181 128 l-96 69 -44 -30z m270 -167 c121 -85 220 -160 221
-166 0 -6 -13 -17 -30 -24 -16 -7 -30 -16 -30 -20 0 -5 -6 -10 -13 -12 -28 -7
-366 -223 -359 -230 15 -15 427 -268 437 -268 5 0 -1 -9 -15 -20 -27 -22 -407
-291 -427 -304 -8 -4 -94 49 -225 139 -246 169 -253 174 -247 179 7 6 361 221
406 247 24 13 43 26 43 29 0 5 -424 271 -447 280 -8 3 34 38 99 83 62 43 167
116 233 162 66 46 123 83 127 82 4 -1 106 -72 227 -157z"/>
<path d="M668 365 c-2 -108 -1 -198 2 -200 6 -4 320 188 320 195 -1 7 -290
194 -306 198 -10 3 -14 -40 -16 -193z"/>
</g>
</svg>
