<svg width="120" height="120" viewBox="0 0 120 120" fill="none" xmlns="http://www.w3.org/2000/svg">
<path d="M60 18.75C51.8415 18.75 43.8662 21.1693 37.0827 25.7019C30.2992 30.2345 25.0121 36.6769 21.89 44.2143C18.7678 51.7518 17.951 60.0458 19.5426 68.0475C21.1342 76.0492 25.0629 83.3992 30.8318 89.1682C36.6008 94.9371 43.9508 98.8657 51.9525 100.457C59.9542 102.049 68.2482 101.232 75.7857 98.11C83.3231 94.9879 89.7655 89.7008 94.2981 82.9173C98.8307 76.1337 101.25 68.1585 101.25 60C101.25 49.0598 96.904 38.5677 89.1682 30.8318C81.4323 23.096 70.9402 18.75 60 18.75ZM60 91.875C53.6957 91.875 47.533 90.0056 42.2912 86.5031C37.0494 83.0006 32.9639 78.0224 30.5513 72.198C28.1388 66.3736 27.5076 59.9646 28.7375 53.7815C29.9674 47.5984 33.0032 41.9188 37.461 37.461C41.9188 33.0032 47.5983 29.9674 53.7815 28.7375C59.9646 27.5076 66.3736 28.1388 72.198 30.5513C78.0224 32.9639 83.0006 37.0494 86.5031 42.2912C90.0056 47.533 91.875 53.6957 91.875 60C91.875 68.4538 88.5168 76.5613 82.539 82.539C76.5613 88.5168 68.4538 91.875 60 91.875Z" fill="#85BB40"/>
<path d="M107.276 85.5314L112.5 80.8153C111.242 77.7776 111.239 77.7698 109.98 74.7321L102.952 75.0912L99.2838 71.4234L99.6427 64.3945L93.5597 61.875L88.8434 67.099H83.6564L78.9403 61.875L72.8571 64.3945L73.2162 71.4234L69.5484 75.0912L62.5195 74.7321L60 80.8153L65.224 85.5314V90.7184L60 95.4347L62.5195 101.518L69.5484 101.159L73.2162 104.827L72.8571 111.855L78.9403 114.375L83.6564 109.151H88.8434L93.5597 114.375L99.6427 111.855L99.2838 104.827L102.952 101.159L109.98 101.518L112.5 95.4347L107.276 90.7184V85.5314ZM86.25 99.375C84.025 99.375 81.8499 98.7152 79.9998 97.479C78.1498 96.2429 76.7078 94.4859 75.8564 92.4302C75.0049 90.3745 74.7821 88.1125 75.2162 85.9302C75.6502 83.7479 76.7217 81.7434 78.295 80.17C79.8684 78.5967 81.8729 77.5252 84.0552 77.0912C86.2375 76.6571 88.4995 76.8799 90.5552 77.7314C92.6109 78.5828 94.3679 80.0248 95.604 81.8748C96.8402 83.7249 97.5 85.9 97.5 88.125C97.5 91.1087 96.3147 93.9702 94.205 96.08C92.0952 98.1897 89.2337 99.375 86.25 99.375V99.375Z" fill="#EB5849"/>
<path d="M5.625 5.625H28.125V46.875H5.625V5.625Z" fill="#5DB9D2"/>
<path d="M11.25 11.25H15V15H11.25V11.25Z" fill="#2AA2C3"/>
<path d="M18.75 11.25H22.5V15H18.75V11.25Z" fill="#2AA2C3"/>
<path d="M11.25 18.75H15V22.5H11.25V18.75Z" fill="#2AA2C3"/>
<path d="M11.25 26.25H15V30H11.25V26.25Z" fill="#2AA2C3"/>
<path d="M11.25 33.75H15V37.5H11.25V33.75Z" fill="#2AA2C3"/>
<path d="M20.625 20.625H43.125V46.875H20.625V20.625Z" fill="#0093B9"/>
<path d="M26.25 33.75H30V37.5H26.25V33.75Z" fill="#5DB9D2"/>
<path d="M33.75 33.75H37.5V37.5H33.75V33.75Z" fill="#5DB9D2"/>
<path d="M26.25 26.25H30V30H26.25V26.25Z" fill="#5DB9D2"/>
<path d="M33.75 26.25H37.5V30H33.75V26.25Z" fill="#5DB9D2"/>
<path d="M24.375 82.5C29.5527 82.5 33.75 78.3027 33.75 73.125C33.75 67.9473 29.5527 63.75 24.375 63.75C19.1973 63.75 15 67.9473 15 73.125C15 78.3027 19.1973 82.5 24.375 82.5Z" fill="#0093B9"/>
<path d="M35.625 116.25V110.625H37.5C38.4946 110.625 39.4484 110.23 40.1516 109.527C40.8549 108.823 41.25 107.87 41.25 106.875V90C41.25 88.0109 40.4598 86.1032 39.0533 84.6967C37.6468 83.2902 35.7391 82.5 33.75 82.5H15C13.0109 82.5 11.1032 83.2902 9.6967 84.6967C8.29018 86.1032 7.5 88.0109 7.5 90V106.875C7.5 107.87 7.89509 108.823 8.59835 109.527C9.30161 110.23 10.2554 110.625 11.25 110.625H13.125V116.25H35.625Z" fill="#0093B9"/>
<path d="M15 112.5C14.5027 112.5 14.0258 112.302 13.6742 111.951C13.3225 111.599 13.125 111.122 13.125 110.625C13.125 110.128 13.3225 109.651 13.6742 109.299C14.0258 108.948 14.5027 108.75 15 108.75C15.4973 108.75 15.9742 108.552 16.3258 108.201C16.6775 107.849 16.875 107.372 16.875 106.875V103.901L13.6741 100.701C13.5 100.527 13.3619 100.32 13.2677 100.093C13.1735 99.8651 13.125 99.6212 13.125 99.375V93.75H16.875V98.5985L20.0759 101.799C20.25 101.973 20.3881 102.18 20.4823 102.407C20.5765 102.635 20.625 102.879 20.625 103.125V106.875C20.625 108.367 20.0324 109.798 18.9775 110.852C17.9226 111.907 16.4918 112.5 15 112.5Z" fill="#107C98"/>
<path d="M33.75 112.5C32.2582 112.5 30.8274 111.907 29.7725 110.852C28.7176 109.798 28.125 108.367 28.125 106.875V103.125C28.125 102.879 28.1735 102.635 28.2677 102.407C28.3619 102.18 28.5 101.973 28.6741 101.799L31.875 98.5985V93.75H35.625V99.375C35.625 99.6212 35.5765 99.8651 35.4823 100.093C35.3881 100.32 35.25 100.527 35.0759 100.701L31.875 103.901V106.875C31.875 107.372 32.0725 107.849 32.4242 108.201C32.7758 108.552 33.2527 108.75 33.75 108.75C34.2473 108.75 34.7242 108.948 35.0758 109.299C35.4275 109.651 35.625 110.128 35.625 110.625C35.625 111.122 35.4275 111.599 35.0758 111.951C34.7242 112.302 34.2473 112.5 33.75 112.5Z" fill="#107C98"/>
<path d="M76.875 22.5H106.875V41.25H76.875V22.5Z" fill="#F6BC1B"/>
<path d="M76.875 22.5L80.625 15H103.125L106.875 22.5H76.875Z" fill="#F5A820"/>
<path d="M88.125 15L86.25 22.5V30H97.5V22.5L95.625 15H88.125Z" fill="#F6E369"/>
<path d="M95.625 15H88.125L86.25 22.5H97.5L95.625 15Z" fill="#F7D40C"/>
</svg>
