<svg width="100" height="100" viewBox="0 0 100 100" fill="none" xmlns="http://www.w3.org/2000/svg">
<path d="M99.5591 68.3786L92.6613 61.4811C92.0728 60.8927 91.1191 60.8927 90.5308 61.4811C89.9425 62.0694 89.9425 63.0233 90.5308 63.6114L91.4915 64.5719L68.3349 87.7288L60.0741 79.468L83.2309 56.3113L85.5916 58.672C86.1802 59.2603 87.1339 59.2603 87.7222 58.672C88.3105 58.0837 88.3105 57.1298 87.7222 56.5417L84.3045 53.124C81.5969 50.3475 79.8177 47.1842 77.3114 44.2159C80.1748 40.3702 77.1444 34.7396 72.3746 34.9736C72.5323 31.6243 69.6702 28.747 66.31 28.906C66.4675 25.5583 63.5948 22.6759 60.2408 22.84C60.5009 17.3138 53.5937 14.8281 49.9997 18.8194L49.645 18.4647C47.3851 16.2048 43.7077 16.2048 41.4478 18.4647C40.2469 19.6656 39.6841 21.2669 39.7596 22.8431C36.405 22.6824 33.5315 25.5468 33.6904 28.9097C32.3541 28.8462 31.0009 29.2433 29.8879 30.0973C27.8399 29.3751 25.6007 29.637 23.6176 30.8584C21.1727 32.3643 19.6426 34.9837 19.6052 37.7142L17.8987 50.9216L0.441485 68.3786C-0.146836 68.967 -0.146836 69.9208 0.441485 70.509L25.7285 95.7961C26.0225 96.0904 26.4082 96.2374 26.7936 96.2374C27.1791 96.2374 27.5647 96.0904 27.8588 95.7961L43.1216 80.5333C43.7099 79.945 43.7099 78.9911 43.1216 78.403L40.5574 75.8388C43.4362 72.9603 46.3235 71.502 49.9999 69.8411C53.6479 71.4894 56.5891 72.9858 59.4424 75.8388L56.8782 78.403C56.5958 78.6854 56.4371 79.0686 56.4371 79.4682C56.4371 79.8677 56.5958 80.2509 56.8782 80.5333L72.141 95.7961C72.4353 96.0902 72.8209 96.2374 73.2064 96.2374C73.5918 96.2374 73.9775 96.0904 74.2717 95.7961L99.5589 70.5092C99.8413 70.2267 100 69.8435 100 69.444C100 69.0445 99.8415 68.661 99.5591 68.3786ZM72.652 37.9797C74.6023 37.9821 75.9901 40.104 75.1977 41.8909C73.9871 40.6556 72.7552 39.4408 71.5322 38.2178C71.9056 38.1382 72.2788 38.0591 72.652 37.9797ZM66.5846 31.9121C68.5528 31.9145 69.9207 34.0294 69.1307 35.8221C67.8355 34.5565 66.3719 33.4144 64.7349 32.6232C65.2635 32.1576 65.88 31.9206 66.5846 31.9121ZM25.7331 43.086L25.3784 42.7313C24.2931 41.646 24.2931 39.8803 25.3784 38.795C25.9211 38.2525 26.6337 37.9811 27.3464 37.9811C28.0591 37.9811 28.7719 38.2525 29.3144 38.795L29.669 39.1495L27.7009 41.1176L25.7331 43.086ZM43.5784 20.595C44.1211 20.0525 44.8338 19.7811 45.5464 19.7811C46.2591 19.7811 46.9719 20.0525 47.5144 20.595L47.8692 20.9497L43.9329 24.886L43.5782 24.5313C42.4931 23.446 42.4931 21.6803 43.5784 20.595ZM36.6965 28.6299C36.6965 27.8865 36.9859 27.1875 37.5118 26.6618C38.0545 26.1193 38.7672 25.8479 39.4798 25.8479C40.1925 25.8479 40.9053 26.1193 41.4478 26.6618L41.8026 27.0165L39.8345 28.9846L37.8663 30.9526L37.5116 30.5979C36.9859 30.0722 36.6965 29.3732 36.6965 28.6299ZM33.413 31.9145C34.1257 31.9145 34.8387 32.1859 35.381 32.7284L35.7358 33.0831L31.7995 37.0194L31.4448 36.6647C30.3595 35.5794 30.3595 33.8137 31.4448 32.7284C31.9877 32.1857 32.7001 31.9145 33.413 31.9145ZM25.1976 33.4236C25.7733 33.0693 26.7729 32.6145 27.961 32.7326C27.7021 33.4549 27.5898 34.2184 27.6262 34.9765C25.6909 34.8837 23.7753 35.805 22.642 37.378C22.7979 35.8231 23.7646 34.3062 25.1976 33.4236ZM26.7936 92.6004L3.63718 69.4438L6.37853 66.7024L29.535 89.8591L26.7936 92.6004ZM56.7139 69.5665C55.6513 68.9061 54.5239 68.3489 53.3535 67.9058C54.8537 66.8258 56.1209 65.4935 57.4225 64.1921C58.0108 63.6038 58.0108 62.6499 57.4225 62.0618C56.834 61.4734 55.8803 61.4734 55.292 62.0618C53.4647 63.889 51.6797 65.6574 49.3298 66.8254C45.2128 68.884 41.7407 70.3949 38.4275 73.7081L25.6186 60.8992C25.0303 60.3109 24.0764 60.3109 23.4883 60.8992C22.8999 61.4875 22.8999 62.4414 23.4883 63.0295L39.9265 79.4678L31.6659 87.7286L8.50886 64.5721L16.7695 56.3115L18.2611 57.8031C18.8494 58.3914 19.8033 58.3914 20.3914 57.8031C20.9797 57.2148 20.9797 56.2609 20.3914 55.6728L18.8998 54.1812L20.392 52.689C20.6274 52.4536 20.778 52.1469 20.8208 51.8168L21.9696 42.9267C22.5183 44.2962 23.649 45.2632 24.6649 46.2789C25.254 46.8682 26.2216 46.8588 26.7983 46.2819L52.4858 20.5942C54.9959 18.0841 58.941 22.0131 56.4226 24.5313C56.1286 24.8254 55.9815 25.211 55.9815 25.5965C55.9815 25.9819 56.1286 26.3676 56.4226 26.6616C57.0112 27.2499 57.9648 27.2499 58.5532 26.6616C61.0924 24.1223 65.0277 28.0588 62.4888 30.5973C62.1948 30.8914 62.0477 31.277 62.0477 31.6625C62.0477 31.3144 50.0804 31.4769 49.1125 31.4769C42.5542 31.4769 41.4653 41.1897 47.9463 42.4545L55.4159 44.6668C56.5825 45.0119 57.6545 45.6498 58.5162 46.5117L64.6792 52.6745L60.3304 57.0234C59.7419 57.6117 59.7419 58.5654 60.3302 59.1537C60.9185 59.742 61.8724 59.742 62.4605 59.1537L67.8747 53.7397C68.1573 53.4573 68.316 53.074 68.316 52.6745C68.316 52.275 68.1573 51.8918 67.8749 51.6094L60.6469 44.3814C59.4309 43.1654 57.9176 42.2649 56.2714 41.778L48.728 39.5438C45.9489 38.7213 45.6882 34.49 49.1127 34.49H59.8162C62.7236 34.49 65.2105 36.1563 67.1974 38.1434C67.1974 38.1434 73.7312 44.704 74.1731 45.1985C76.7481 48.0622 78.3956 51.4752 81.1008 54.1802L61.5731 73.7079C60.0556 72.1908 58.5507 70.7074 56.7139 69.5665ZM73.2068 92.6004L70.4656 89.8593L93.6221 66.7026L96.3634 69.444L73.2068 92.6004Z" fill="#3D4DA1"/>
<path d="M49.9999 9.85541C50.8321 9.85541 51.5063 9.18092 51.5063 8.34895V5.26915C51.5063 4.43719 50.8321 3.7627 49.9999 3.7627C49.1679 3.7627 48.4934 4.43719 48.4934 5.26915V8.34895C48.4934 9.18092 49.1679 9.85541 49.9999 9.85541Z" fill="#3D4DA1"/>
<path d="M41.5049 10.4123C41.7523 10.9782 42.3053 11.3156 42.8858 11.3156C43.0873 11.3156 43.2921 11.2748 43.4886 11.1891C44.2508 10.8556 44.5985 9.96744 44.2651 9.20517L43.031 6.38348C42.6976 5.62121 41.8094 5.27332 41.0471 5.60695C40.2848 5.94038 39.9372 6.82858 40.2706 7.59085L41.5049 10.4123Z" fill="#3D4DA1"/>
<path d="M35.9284 15.1031C36.2182 15.371 36.585 15.5034 36.9508 15.5034C37.3561 15.5034 37.7602 15.3407 38.0573 15.0197C38.6221 14.4089 38.5848 13.4558 37.9739 12.8908L35.7126 10.7998C35.1016 10.2348 34.1487 10.2724 33.5837 10.8832C33.0189 11.494 33.0563 12.4471 33.6671 13.0121L35.9284 15.1031Z" fill="#3D4DA1"/>
<path d="M56.5112 11.1888C56.7077 11.2748 56.9123 11.3154 57.114 11.3154C57.6945 11.3154 58.2477 10.9779 58.4951 10.4121L59.7292 7.59039C60.0624 6.82812 59.7147 5.93992 58.9525 5.60669C58.1908 5.27366 57.302 5.62095 56.9686 6.38342L55.7345 9.20511C55.4013 9.96718 55.749 10.8554 56.5112 11.1888Z" fill="#3D4DA1"/>
<path d="M63.049 15.5034C63.4148 15.5034 63.7816 15.371 64.0714 15.1031L66.3329 13.0121C66.9437 12.4473 66.9813 11.4942 66.4162 10.8832C65.8512 10.2724 64.8981 10.2348 64.2873 10.7998L62.0258 12.8908C61.415 13.4556 61.3775 14.4087 61.9425 15.0197C62.2396 15.3407 62.6437 15.5034 63.049 15.5034Z" fill="#3D4DA1"/>
<path d="M32.0677 81.2758C32.98 81.0601 33.5447 80.1457 33.3291 79.2335C33.1134 78.3212 32.199 77.7564 31.2868 77.9721C30.3745 78.1877 29.8097 79.1021 30.0254 80.0144C30.241 80.9267 31.1554 81.4914 32.0677 81.2758Z" fill="#3D4DA1"/>
</svg>
