<svg width="900" height="43" viewBox="0 0 900 43" fill="none" xmlns="http://www.w3.org/2000/svg">
<path d="M0 17L21.5 19.5C43 22 86 27 128.8 32.3C171.7 37.7 214.3 43.3 257.2 42.8C300 42.3 343 35.7 385.8 31C428.7 26.3 471.3 23.7 514.2 21.5C557 19.3 600 17.7 642.8 19.2C685.7 20.7 728.3 25.3 771.2 27.3C814 29.3 857 28.7 878.5 28.3L900 28V0H878.5C857 0 814 0 771.2 0C728.3 0 685.7 0 642.8 0C600 0 557 0 514.2 0C471.3 0 428.7 0 385.8 0C343 0 300 0 257.2 0C214.3 0 171.7 0 128.8 0C86 0 43 0 21.5 0H0V17Z" fill="#FFF38A"/>
</svg>
