<svg width="120" height="120" viewBox="0 0 120 120" fill="none" xmlns="http://www.w3.org/2000/svg">
<g clip-path="url(#clip0)">
<path d="M90.8051 28.7913C89.8198 28.7913 89.0212 27.9925 89.0212 27.0074V7.54919C89.0212 6.56386 89.8198 5.76529 90.8051 5.76529C91.7905 5.76529 92.5891 6.5641 92.5891 7.54919V27.0072C92.5893 27.9925 91.7907 28.7913 90.8051 28.7913Z" fill="#365E7D"/>
<path d="M31.3611 66.7144L36.6165 68.8753L40.1682 65.5784V39.0952C40.1682 37.9892 39.2714 37.0924 38.1654 37.0924H10.2517C9.14566 37.0924 8.2489 37.9892 8.2489 39.0952V61.8351L12.2354 66.5923H30.7432C30.9551 66.5923 31.165 66.6338 31.3611 66.7144Z" fill="#E7ECF6"/>
<path d="M38.1654 37.0924H33.0659C34.1719 37.0924 35.0686 37.9892 35.0686 39.0952V68.2389L40.1682 65.5784V39.0952C40.1682 37.9889 39.2714 37.0924 38.1654 37.0924Z" fill="#D8E2F1"/>
<path d="M42.436 28.8707C41.7299 28.8707 41.0616 28.449 40.7812 27.7544C40.4121 26.841 40.8536 25.8013 41.7672 25.4323L95.9613 3.54297C96.8751 3.17391 97.9146 3.61561 98.2834 4.529C98.6525 5.44239 98.211 6.48209 97.2974 6.85115L43.1033 28.7405C42.8844 28.8288 42.6583 28.8707 42.436 28.8707Z" fill="#C3D5EF"/>
<path d="M58.2282 74.1504H48.8914V8.87242C48.8914 7.51545 50.5379 6.84247 51.4884 7.81093L57.1482 13.5783C57.8404 14.2839 58.2284 15.2327 58.2284 16.221V74.1504H58.2282Z" fill="#365E7D"/>
<path d="M58.2282 16.2213C58.2282 15.2329 57.8404 14.2839 57.148 13.5786L51.4881 7.81115C50.5377 6.84269 48.8914 7.51567 48.8914 8.8724V11.5381L53.2601 15.9897C53.9523 16.6953 54.3403 17.6441 54.3403 18.6324V74.1504H58.2284V16.2213H58.2282Z" fill="#2B4D66"/>
<path d="M118.595 68.9709H49.3724C48.7444 68.9709 48.1188 68.8472 47.536 68.607L31.3616 61.9564C31.1641 61.8756 30.9548 61.8351 30.7432 61.8351H2.14993C1.54468 61.8351 1.12875 62.4434 1.34831 63.0074L8.98139 82.612L15.0436 84.515H100.921L107.224 82.612C110.121 78.1807 113.958 73.7516 118.73 69.3205C118.864 69.1956 118.778 68.9709 118.595 68.9709Z" fill="#3D4DA1"/>
<path d="M9.9306 91.9339V97.2333C9.9306 102.814 14.4544 107.338 20.0349 107.338H97.1228C99.0065 107.338 100.548 105.796 100.505 103.91C100.412 99.9189 101.078 95.9277 102.508 91.9339L96.2391 87.1766H15.3395L9.9306 91.9339Z" fill="#3D4DA1"/>
<path d="M118.712 69.0079C118.68 68.9849 118.64 68.9709 118.595 68.9709H112.67C107.722 73.5189 103.76 78.0643 100.786 82.612C100.371 83.2461 99.9766 83.8804 99.5996 84.515H100.921L107.225 82.612C110.441 77.7032 114.418 73.3309 118.73 69.3205C118.831 69.227 118.807 69.077 118.712 69.0079Z" fill="#3D4DA1"/>
<path d="M97.6172 88.2227C97.4078 88.6629 97.2046 89.1032 97.0136 89.5433C96.6687 90.3402 96.3524 91.1369 96.0693 91.9339C94.6397 95.9274 93.9737 99.9189 94.0665 103.91C94.1094 105.796 92.568 107.338 90.6841 107.338H97.1226C99.0063 107.338 100.548 105.796 100.505 103.91C100.412 99.9189 101.078 95.9277 102.508 91.9339L97.6172 88.2227Z" fill="#3D4DA1"/>
<path d="M31.1111 14.6791H17.306C16.2199 14.6791 15.3395 15.5595 15.3395 16.6456V37.0924H33.0776V16.6453C33.0776 15.5595 32.1972 14.6791 31.1111 14.6791Z" fill="#C3D5EF"/>
<path d="M31.1111 14.6791H26.725C27.8111 14.6791 28.6915 15.5595 28.6915 16.6456V37.0924H33.0775V16.6453C33.0775 15.5595 32.1972 14.6791 31.1111 14.6791Z" fill="#B7C8EA"/>
<path d="M24.2084 24.3153C23.2231 24.3153 22.4245 23.5165 22.4245 22.5314V21.0041C22.4245 20.0188 23.2231 19.2202 24.2084 19.2202C25.1937 19.2202 25.9923 20.019 25.9923 21.0041V22.5314C25.9923 23.5167 25.1937 24.3153 24.2084 24.3153Z" fill="#61A2F9"/>
<path d="M24.2084 31.3949C23.2231 31.3949 22.4245 30.5961 22.4245 29.611V28.0835C22.4245 27.0981 23.2231 26.2996 24.2084 26.2996C25.1937 26.2996 25.9923 27.0984 25.9923 28.0835V29.611C25.9923 30.5961 25.1937 31.3949 24.2084 31.3949Z" fill="#61A2F9"/>
<path d="M15.0438 47.458C14.0585 47.458 13.2599 46.6592 13.2599 45.6741V44.1465C13.2599 43.1612 14.0585 42.3626 15.0438 42.3626C16.0291 42.3626 16.8277 43.1614 16.8277 44.1465V45.6741C16.8277 46.6592 16.0291 47.458 15.0438 47.458Z" fill="#61A2F9"/>
<path d="M24.2084 47.458C23.2231 47.458 22.4245 46.6592 22.4245 45.6741V44.1465C22.4245 43.1612 23.2231 42.3626 24.2084 42.3626C25.1937 42.3626 25.9923 43.1614 25.9923 44.1465V45.6741C25.9923 46.6592 25.1937 47.458 24.2084 47.458Z" fill="#61A2F9"/>
<path d="M33.3733 47.458C32.3879 47.458 31.5894 46.6592 31.5894 45.6741V44.1465C31.5894 43.1612 32.3879 42.3626 33.3733 42.3626C34.3586 42.3626 35.1572 43.1614 35.1572 44.1465V45.6741C35.1572 46.6592 34.3586 47.458 33.3733 47.458Z" fill="#61A2F9"/>
<path d="M28.5947 61.8351H19.8224V53.6759C19.8224 53.0505 20.3295 52.5435 20.9549 52.5435H27.462C28.0874 52.5435 28.5945 53.0505 28.5945 53.6759V61.8351H28.5947Z" fill="#80B4FB"/>
<path d="M95.3665 56.998H115.598V68.971H95.3665V56.998Z" fill="#B3E59F"/>
<path d="M110.916 56.998H115.598V68.971H110.916V56.998Z" fill="#95D6A4"/>
<path d="M75.1349 56.998H95.3666V68.971H75.1349V56.998Z" fill="#EAB14D"/>
<path d="M90.6842 56.998H95.3664V68.971H90.6842V56.998Z" fill="#E49542"/>
<path d="M115.598 56.998H95.3665V45.025H114.927C115.298 45.025 115.598 45.3254 115.598 45.6961V56.998Z" fill="#365E7D"/>
<path d="M110.916 45.025V56.998H115.598V45.6961C115.598 45.3254 115.298 45.025 114.927 45.025H110.916Z" fill="#2B4D66"/>
<path d="M100.25 34.5456H81.3606C80.9899 34.5456 80.6895 34.2452 80.6895 33.8745V23.2437C80.6895 22.873 80.9899 22.5726 81.3606 22.5726H100.25C100.621 22.5726 100.921 22.873 100.921 23.2437V33.8747C100.921 34.2452 100.621 34.5456 100.25 34.5456Z" fill="#B3E59F"/>
<path d="M96.2389 22.5726V34.5456H100.25C100.621 34.5456 100.921 34.2452 100.921 33.8745V23.2437C100.921 22.873 100.621 22.5726 100.25 22.5726H96.2389Z" fill="#95D6A4"/>
<path d="M95.3666 56.998H75.1349V45.6961C75.1349 45.3254 75.4353 45.025 75.806 45.025H95.3666V56.998Z" fill="#3D4DA1"/>
<path d="M90.6842 45.025H95.3664V56.998H90.6842V45.025Z" fill="#3D4DA1"/>
<path d="M75.1348 68.971H54.9031V57.7745C54.9031 57.3457 55.2509 56.998 55.6797 56.998H75.1348V68.971Z" fill="#80B4FB"/>
<path d="M70.4526 56.998H75.1348V68.971H70.4526V56.998Z" fill="#61A2F9"/>
<path d="M0.89208 106.941C0.89208 106.504 1.23935 106.15 1.67542 106.132C10.751 105.764 11.012 99.0119 20.5954 99.0119C30.447 99.0119 30.447 106.148 40.2989 106.148C50.1503 106.148 50.1501 99.0119 60.0015 99.0119C69.8525 99.0119 69.8525 106.148 79.7037 106.148C89.5549 106.148 89.5549 99.0119 99.406 99.0119C108.989 99.0119 109.25 105.764 118.325 106.132C118.761 106.15 119.108 106.504 119.108 106.941V119.147C119.108 119.618 118.726 120 118.255 120H1.74525C1.27403 120 0.891846 119.618 0.891846 119.147L0.89208 106.941Z" fill="#D3EFFB"/>
<path d="M99.4068 99.0119C89.5556 99.0119 89.5556 106.148 79.7044 106.148C69.8535 106.148 69.8535 99.0119 60.0023 99.0119C50.1509 99.0119 50.1509 106.148 40.2997 106.148C30.448 106.148 30.448 99.0119 20.5961 99.0119C11.0128 99.0119 10.7517 105.764 1.67617 106.132C1.24009 106.15 0.892822 106.504 0.892822 106.941V111.522C10.7445 111.522 10.7445 104.386 20.5964 104.386C30.448 104.386 30.448 111.522 40.2999 111.522C50.1513 111.522 50.1513 104.386 60.0025 104.386C69.8535 104.386 69.8535 111.522 79.7046 111.522C89.5558 111.522 89.5558 104.386 99.407 104.386C109.258 104.386 109.258 111.522 119.109 111.522V106.941C119.109 106.504 118.762 106.15 118.326 106.132C109.25 105.764 108.989 99.0119 99.4068 99.0119Z" fill="#B1E4F9"/>
<path d="M28.2163 116.29C26.0284 116.29 24.8275 115.42 23.9507 114.784C23.239 114.269 22.8095 113.958 21.778 113.958C20.7465 113.958 20.317 114.269 19.6051 114.784C18.7283 115.419 17.5274 116.29 15.3395 116.29C14.3542 116.29 13.5556 115.491 13.5556 114.506C13.5556 113.52 14.3542 112.722 15.3395 112.722C16.3708 112.722 16.8005 112.411 17.5124 111.895C18.3892 111.26 19.5901 110.39 21.778 110.39C23.9657 110.39 25.1666 111.26 26.0434 111.895C26.755 112.411 27.1848 112.722 28.2163 112.722C29.2016 112.722 30.0002 113.52 30.0002 114.506C30.0002 115.491 29.2016 116.29 28.2163 116.29Z" fill="#B1E4F9"/>
<path d="M66.4384 116.29C64.2505 116.29 63.0496 115.42 62.1728 114.784C61.4611 114.269 61.0314 113.958 59.9999 113.958C58.9686 113.958 58.5389 114.269 57.827 114.784C56.9502 115.419 55.7493 116.29 53.5616 116.29C52.5763 116.29 51.7777 115.491 51.7777 114.506C51.7777 113.52 52.5763 112.722 53.5616 112.722C54.5929 112.722 55.0224 112.411 55.7343 111.895C56.6111 111.26 57.812 110.39 59.9999 110.39C62.1878 110.39 63.3887 111.26 64.2655 111.895C64.9771 112.411 65.4069 112.722 66.4384 112.722C67.4237 112.722 68.2223 113.52 68.2223 114.506C68.2223 115.491 67.4237 116.29 66.4384 116.29Z" fill="#B1E4F9"/>
<path d="M103.068 116.29C100.88 116.29 99.679 115.42 98.8021 114.784C98.0905 114.269 97.6607 113.958 96.6293 113.958C95.5978 113.958 95.1683 114.269 94.4564 114.784C93.5795 115.419 92.3786 116.29 90.1908 116.29C89.2054 116.29 88.4069 115.491 88.4069 114.506C88.4069 113.52 89.2054 112.722 90.1908 112.722C91.222 112.722 91.6518 112.411 92.3636 111.895C93.2405 111.26 94.4414 110.39 96.6293 110.39C98.8171 110.39 100.018 111.26 100.895 111.895C101.607 112.411 102.036 112.722 103.068 112.722C104.053 112.722 104.851 113.52 104.851 114.506C104.851 115.491 104.053 116.29 103.068 116.29Z" fill="#B1E4F9"/>
<path d="M107.225 82.612C105.712 84.9215 104.454 87.2336 103.452 89.5433C103.107 90.3403 102.791 91.137 102.508 91.9339H9.93064V86.092C9.93064 85.407 9.80223 84.7266 9.55478 84.0869L8.98163 82.612H107.225Z" fill="#E7ECF6"/>
<path d="M97.0139 89.5434C96.669 90.3403 96.3526 91.137 96.0696 91.9339H102.508C103.664 88.6785 105.317 85.5254 107.225 82.6123H100.786C99.2735 84.9218 98.0152 87.2339 97.0139 89.5434Z" fill="#D8E2F1"/>
<path d="M96.6292 77.8281H93.3602C92.3749 77.8281 91.5763 77.0295 91.5763 76.0442C91.5763 75.0589 92.3749 74.2603 93.3602 74.2603H96.6292C97.6146 74.2603 98.4131 75.0589 98.4131 76.0442C98.4131 77.0295 97.6146 77.8281 96.6292 77.8281Z" fill="#E7ECF6"/>
</g>
<defs>
<clipPath id="clip0">
<rect width="120" height="120" fill="white"/>
</clipPath>
</defs>
</svg>
