<svg width="100" height="100" viewBox="0 0 100 100" fill="none" xmlns="http://www.w3.org/2000/svg">
<g clip-path="url(#clip0)">
<path d="M1.13327 93.3547L2.42957 96.2726L48.9459 76.9848L57.0497 77.9574L59.9668 86.8717L56.0771 90.5999C54.6186 91.8962 54.1326 94.0029 54.943 95.9481L56.5638 100L83.4679 89.465L82.0093 85.5754C81.3612 83.6301 79.5782 82.4961 77.4715 82.4961H72.1225L69.2055 75.5263L76.3367 71.9611C78.6056 70.8262 79.5782 68.2328 78.7678 65.9639L69.5299 41.1665C68.5573 38.5731 65.8017 37.4383 63.2083 38.2487C63.2083 38.2487 63.0469 38.2487 63.0469 38.4109L56.2393 41.328L55.2667 38.8968L58.9949 34.5212C61.5875 31.6034 63.2083 28.0382 63.695 24.1485L68.3951 18.4758C71.4744 14.9098 70.8262 9.56159 67.2602 6.4815C66.6121 5.99558 65.9639 5.50967 65.3158 5.1852C63.5328 4.37482 61.7498 4.21258 59.8053 4.69929L59.3186 3.23997C58.5082 0.647372 55.5912 -0.649715 53.16 0.322902L18.9617 12.6409C16.3683 13.6135 15.072 16.3683 16.0446 18.7995V18.9617L16.855 21.0684C12.6409 23.0136 10.6956 27.8759 12.1542 32.0901C13.289 35.3316 16.2061 37.6005 19.6098 38.0864L27.2278 38.8968C30.3071 41.1665 34.0345 42.6251 37.7627 42.9487L43.111 43.4354L44.0836 45.8666C42.9487 46.5147 42.1383 47.6496 41.8147 49.1081L40.6798 54.6186L1.13327 70.664L2.26812 73.7433L24.9589 64.6676L30.4693 81.199L1.13327 93.3547ZM78.7678 86.548L79.0923 87.5198L58.346 95.7859L57.8601 94.8133C57.6979 94.1651 57.8601 93.517 58.1846 93.031L63.695 87.8443L70.664 85.5754H77.147C77.9574 85.5754 78.4441 85.899 78.7678 86.548ZM68.5573 82.6575L62.7224 84.6027L60.6157 78.4442C61.5875 78.6056 62.3979 78.4442 63.2083 77.9574L65.9639 76.6611L68.5573 82.6575ZM64.1809 40.8421C64.9913 40.5176 65.9639 40.8421 66.2884 41.6524L67.5847 45.0562L59.6431 47.6496L60.6157 50.7289L68.5573 48.1355L70.5017 53.3223L62.8846 55.9149L63.8572 58.995L71.6366 56.4016L73.5818 61.5875L66.1262 64.0187L67.0988 67.0988L74.7159 64.5054L75.5263 66.6121C75.8508 67.4225 75.5263 68.2328 74.7159 68.5573L61.912 74.8782C61.5875 75.0404 61.2639 75.0404 60.9394 75.0404L49.9185 73.7433L43.9213 55.7534L45.0562 49.7563C45.2184 49.2704 45.5421 48.7837 46.0288 48.6214L64.1809 40.8421ZM64.0187 8.10226C66.6121 9.23712 67.9092 12.3164 66.7743 15.072C66.6121 15.5579 66.2884 15.8824 65.9639 16.3683L64.0187 18.7995C63.8572 17.1787 63.5328 15.7202 63.0469 14.0994L60.9394 7.77859C62.0742 7.61635 63.0469 7.77859 64.0187 8.10226ZM15.3957 31.2797C14.4239 28.5241 15.5579 25.607 18.1513 24.3099L20.4202 29.8212C21.2306 31.7656 22.3655 33.7108 23.6618 35.3316L20.258 35.0071C17.9891 34.8449 16.0446 33.3864 15.3957 31.2797ZM38.4109 39.8694C31.7656 39.2213 25.9307 35.0071 23.4995 28.6863L19.2862 17.9891C18.9617 17.1787 19.2862 16.2061 20.0966 15.8824L54.2941 3.56444C54.7808 3.4022 55.1045 3.4022 55.5912 3.56444C55.9149 3.72667 56.2393 4.05035 56.4016 4.53705L59.9668 15.2343C61.912 21.2306 60.6157 27.7137 56.5638 32.4138L51.5393 38.2487L52.9978 42.1384L47.1629 44.5695L45.5421 40.5176L38.4109 39.8694ZM28.0381 63.3705L31.7656 61.912L35.8175 74.23L38.8968 73.2574L34.6834 60.6157L41.1665 58.0223L46.677 74.3922L33.5486 79.9027L28.0381 63.3705Z" fill="#3D4DA1"/>
<path d="M81.1989 28.3618V29.9826H84.4405V28.3618C84.4405 23.824 88.0065 20.258 92.5443 20.258V17.0165C88.0065 17.0165 84.4405 13.4513 84.4405 8.91264V7.29187H81.1989V8.91264C81.1989 13.4513 77.6337 17.0165 73.0951 17.0165V20.258C77.6337 20.258 81.1989 23.824 81.1989 28.3618ZM82.8197 14.7476C83.7923 16.3683 85.0886 17.6654 86.7094 18.6372C85.0886 19.6098 83.7923 20.9069 82.8197 22.5277C81.8471 20.9069 80.5508 19.6098 78.93 18.6372C80.5508 17.6654 81.8471 16.3683 82.8197 14.7476Z" fill="#3D4DA1"/>
<path d="M9.88523 60.7771V62.3979H13.1268V60.7771C13.1268 56.2393 16.6928 52.6733 21.2306 52.6733V49.4317C16.6928 49.4317 13.1268 45.8665 13.1268 41.3279V39.7072H9.88523V41.3279C9.88523 45.8665 6.32002 49.4317 1.7814 49.4317V52.6733C6.32002 52.6733 9.88523 56.2393 9.88523 60.7771ZM11.506 47.1628C12.4786 48.7836 13.7749 50.0807 15.3957 51.0525C13.7749 52.0251 12.4786 53.3222 11.506 54.943C10.5334 53.3222 9.23709 52.0251 7.61632 51.0525C9.23709 50.0807 10.5334 48.7836 11.506 47.1628Z" fill="#3D4DA1"/>
<path d="M90.9236 41.3279V39.7072H87.682V41.3279C87.682 45.8665 84.1168 49.4317 79.5782 49.4317V52.6733C84.1168 52.6733 87.682 56.2393 87.682 60.7771V62.3979H90.9236V60.7771C90.9236 56.2393 94.4896 52.6733 99.0274 52.6733V49.4317C94.4896 49.4317 90.9236 45.8665 90.9236 41.3279ZM89.3028 54.943C88.3302 53.3222 87.0339 52.0251 85.4131 51.0525C87.0339 50.0807 88.3302 48.7836 89.3028 47.1628C90.2754 48.7836 91.5717 50.0807 93.1925 51.0525C91.5717 52.0251 90.2754 53.3222 89.3028 54.943Z" fill="#3D4DA1"/>
<path d="M49.2704 28.8486L51.5393 31.1175C60.4535 22.2033 52.1874 8.589 51.7015 8.10229L48.9459 9.8853C49.1081 9.8853 56.4016 21.7174 49.2704 28.8486Z" fill="#3D4DA1"/>
</g>
<defs>
<clipPath id="clip0">
<rect width="100" height="100" fill="white"/>
</clipPath>
</defs>
</svg>
