<svg width="120" height="120" viewBox="0 0 120 120" fill="none" xmlns="http://www.w3.org/2000/svg">
<path d="M102.281 38.6217H77.5034V83.5306H118.1V63.3172L113.365 46.9535C111.938 42.019 107.418 38.6217 102.281 38.6217Z" fill="#3D4DA1"/>
<path d="M112.173 63.1097L107.953 48.5235C107.226 46.0161 104.894 44.2613 102.281 44.2613H83.1429V63.1097H112.173Z" fill="#84DBFF"/>
<path d="M112.178 63.1022H83.1331V44.2538L112.178 63.1022Z" fill="#CDD6E0"/>
<path d="M112.173 63.1097L107.953 48.5235C107.226 46.0161 104.894 44.2613 102.281 44.2613H83.1429L112.173 63.1097Z" fill="#F2F2F2"/>
<path d="M7.49937 16.076H70.004C74.1437 16.076 77.5034 19.4332 77.5034 23.5754V83.5279H0V23.5754C0 19.4334 3.35714 16.076 7.49937 16.076Z" fill="#FFD15C"/>
<path d="M50.7958 16.0887V35.9044L47.8959 33.0047L44.8563 36.0445L41.8191 33.0047L38.7819 36.0445L35.7395 33.0047L32.6624 36.0445L29.6275 33.0047L26.6929 35.9395V16.0887H50.7958Z" fill="#F2F2F2"/>
<path d="M120 83.5254V91.9997H0.0100708V83.5254H12.534C15.4588 78.2758 21.0833 74.726 27.5328 74.726C33.9571 74.726 39.5817 78.2758 42.5315 83.5254H82.8282C85.7529 78.2758 91.35 74.726 97.7995 74.726C104.249 74.726 109.848 78.2758 112.798 83.5254H120Z" fill="#334A5E"/>
<path d="M109.776 91.9471C109.776 98.5616 104.414 103.924 97.7993 103.924C91.1848 103.924 85.8277 98.5616 85.8277 91.9471C85.8277 85.3327 91.1872 79.9706 97.7993 79.9706C104.416 79.9706 109.776 85.3327 109.776 91.9471Z" fill="#40596B"/>
<path d="M102.614 91.9472C102.614 94.6046 100.459 96.7569 97.8042 96.7569C95.1469 96.7569 92.9896 94.6046 92.9896 91.9472C92.9896 89.2898 95.1445 87.1375 97.8042 87.1375C100.459 87.1352 102.614 89.2901 102.614 91.9472Z" fill="#ACB3BA"/>
<path d="M39.4992 91.9471C39.4992 98.5616 34.1346 103.924 27.5227 103.924C20.9083 103.924 15.5462 98.5616 15.5462 91.9471C15.5462 85.3327 20.9083 79.9706 27.5227 79.9706C34.1346 79.9706 39.4992 85.3327 39.4992 91.9471Z" fill="#40596B"/>
<path d="M32.3324 91.9472C32.3324 94.6045 30.1801 96.7569 27.5227 96.7569C24.8654 96.7569 22.7107 94.6045 22.7107 91.9472C22.7107 89.2898 24.8656 87.1375 27.5227 87.1375C30.1798 87.1375 32.3324 89.2901 32.3324 91.9472Z" fill="#ACB3BA"/>
</svg>
